<?xml version="1.0" encoding="utf-8"?>
<!-- Generator: Adobe Illustrator 16.0.0, SVG Export Plug-In . SVG Version: 6.00 Build 0)  -->
<!DOCTYPE svg PUBLIC "-//W3C//DTD SVG 1.1//EN" "http://www.w3.org/Graphics/SVG/1.1/DTD/svg11.dtd">
<svg version="1.1" xmlns="http://www.w3.org/2000/svg" xmlns:xlink="http://www.w3.org/1999/xlink" x="0px" y="0px" width="168px"
	 height="169.5px" viewBox="0 0 168 169.5" enable-background="new 0 0 168 169.5" xml:space="preserve">
<g id="圖層_1">
</g>
<g id="Capa_1">
	<g>
		<g>
			<g id="XMLID_13_">
				<g>
					<path fill="#FFFFFF" d="M108.118,52.208c6.584,0,11.921,5.336,11.921,11.921c0,6.542-5.336,11.878-11.921,11.878
						c-6.542,0-11.878-5.336-11.878-11.878C96.24,57.544,101.576,52.208,108.118,52.208z"/>
				</g>
				<g>
					<path fill="none" stroke="#FFFFFF" stroke-width="4" stroke-miterlimit="10" d="M59.746,167.5h96.744
						c5.25,0,9.511-4.26,9.511-9.468V11.927c0-5.25-4.26-9.468-9.511-9.468H59.746c-5.25,0-9.468,4.218-9.468,9.468v146.105
						C50.278,163.24,54.495,167.5,59.746,167.5z"/>
					<path fill="none" stroke="#FFFFFF" stroke-width="4" stroke-miterlimit="10" d="M149.647,155.837
						c-3.142,0-5.681-2.539-5.681-5.681s2.54-5.681,5.681-5.681c3.141,0,5.724,2.539,5.724,5.681S152.788,155.837,149.647,155.837z"
						/>
					<path fill="none" stroke="#FFFFFF" stroke-width="4" stroke-miterlimit="10" d="M149.647,15.327
						c3.141,0,5.724,2.539,5.724,5.724c0,3.142-2.583,5.681-5.724,5.681c-3.142,0-5.681-2.539-5.681-5.681
						C143.966,17.866,146.505,15.327,149.647,15.327z"/>
					<path fill="none" stroke="#FFFFFF" stroke-width="4" stroke-miterlimit="10" d="M108.118,19.587
						c24.616,0,44.542,19.925,44.542,44.542c0,24.573-19.925,44.499-44.542,44.499c-3.874,0-7.617-0.473-11.189-1.42l8.349-14.159
						c2.496-4.217-2.281-8.995-6.499-6.499L79.37,97.998c-0.043,0-0.043,0.043-0.043,0.043c0.129,0.774-15.665-18.161-15.708-33.912
						C63.576,39.513,83.544,19.587,108.118,19.587z"/>
					<path fill="none" stroke="#FFFFFF" stroke-width="4" stroke-miterlimit="10" d="M67.75,15.327c3.142,0,5.681,2.539,5.681,5.724
						c0,3.142-2.539,5.681-5.681,5.681c-3.185,0-5.724-2.539-5.724-5.681C62.026,17.866,64.565,15.327,67.75,15.327z"/>
					<path fill="none" stroke="#FFFFFF" stroke-width="4" stroke-miterlimit="10" d="M67.75,144.476
						c3.142,0,5.681,2.539,5.681,5.681s-2.539,5.681-5.681,5.681c-3.185,0-5.724-2.539-5.724-5.681S64.565,144.476,67.75,144.476z"
						/>
					<path fill="none" stroke="#FFFFFF" stroke-width="4" stroke-miterlimit="10" d="M108.118,52.208
						c6.584,0,11.921,5.336,11.921,11.921c0,6.542-5.336,11.878-11.921,11.878c-6.542,0-11.878-5.336-11.878-11.878
						C96.24,57.544,101.576,52.208,108.118,52.208z"/>
				</g>
			</g>
		</g>
		<path fill="#4F912A" stroke="#FFFFFF" stroke-width="4" stroke-miterlimit="10" d="M2.347,110.633
			c0-14.775,9.7-27.307,23.062-31.607c0.434-0.143,0.883-0.25,1.323-0.373c0.506-0.141,1.021-0.279,1.54-0.396
			c0.457-0.104,0.903-0.186,1.352-0.268c0.592-0.109,1.185-0.201,1.784-0.277c0.382-0.045,0.759-0.096,1.126-0.131
			c0.994-0.09,2.002-0.152,3.018-0.152c18.307,0,33.203,14.895,33.203,33.205c0,18.305-14.896,33.205-33.203,33.205
			c-1.016,0-2.023-0.059-3.018-0.154c-0.367-0.037-0.744-0.086-1.126-0.133c-0.6-0.076-1.192-0.164-1.784-0.273
			c-0.448-0.082-0.895-0.168-1.352-0.27c-0.52-0.115-1.034-0.254-1.54-0.398c-0.44-0.119-0.89-0.23-1.323-0.369
			C12.047,137.944,2.347,125.405,2.347,110.633z"/>
		<path fill="#FFFFFF" d="M32.331,94.139v22.16c0,1.9,1.54,3.441,3.442,3.441c1.899,0,3.439-1.541,3.439-3.441v-22.16"/>
		<path fill="#FFFFFF" d="M35.773,131.198c-2,0-3.622-1.621-3.622-3.621c0-2.002,1.622-3.623,3.622-3.623s3.621,1.621,3.621,3.623
			C39.394,129.577,37.773,131.198,35.773,131.198"/>
	</g>
</g>
</svg>
