<?xml version="1.0" encoding="utf-8"?>
<!-- Generator: Adobe Illustrator 16.0.0, SVG Export Plug-In . SVG Version: 6.00 Build 0)  -->
<!DOCTYPE svg PUBLIC "-//W3C//DTD SVG 1.1//EN" "http://www.w3.org/Graphics/SVG/1.1/DTD/svg11.dtd">
<svg version="1.1" xmlns="http://www.w3.org/2000/svg" xmlns:xlink="http://www.w3.org/1999/xlink" x="0px" y="0px" width="168px"
	 height="177.5px" viewBox="0 0 168 177.5" enable-background="new 0 0 168 177.5" xml:space="preserve">
<g id="圖層_1">
</g>
<g id="Capa_1">
	<g>
		<g>
			<g>
				<path fill="none" stroke="#FFFFFF" stroke-width="4" stroke-miterlimit="10" d="M141.259,114.617v33.723
					c0,2.07-1.678,3.746-3.749,3.746H10.115c-2.07,0-3.748-1.676-3.748-3.746V58.414c0-2.07,1.678-3.746,3.748-3.746"/>
			</g>
		</g>
		<g>
			<g>
				<path fill="none" stroke="#FFFFFF" stroke-width="4" stroke-miterlimit="10" d="M92.548,155.834v18.734H55.076v-18.734"/>
			</g>
		</g>
		<g>
			<g>
				
					<line fill="none" stroke="#FFFFFF" stroke-width="4" stroke-miterlimit="10" x1="40.092" y1="174.568" x2="107.536" y2="174.568"/>
			</g>
		</g>
		<g>
			<g>
				<path fill="none" stroke="#FFFFFF" stroke-width="4" stroke-miterlimit="10" d="M152.5,2.21H92.548
					c-6.207,0-11.241,5.031-11.241,11.239v82.434c0,6.209,5.034,11.24,11.241,11.24H152.5c6.208,0,11.24-5.031,11.24-11.24V13.449
					C163.74,7.241,158.708,2.21,152.5,2.21z"/>
			</g>
		</g>
		<g>
			<g>
				
					<rect x="96.295" y="17.197" fill="none" stroke="#FFFFFF" stroke-width="4" stroke-miterlimit="10" width="7.493" height="7.494"/>
			</g>
		</g>
		<g>
			<g>
				
					<rect x="111.281" y="17.197" fill="none" stroke="#FFFFFF" stroke-width="4" stroke-miterlimit="10" width="7.494" height="7.494"/>
			</g>
		</g>
		<g>
			<g>
				<path fill="none" stroke="#FFFFFF" stroke-width="4" stroke-miterlimit="10" d="M122.522,39.678
					c-14.484,0-26.229,11.744-26.229,26.23c0,14.484,11.745,26.229,26.229,26.229c14.479-0.018,26.212-11.75,26.229-26.229
					C148.751,51.422,137.009,39.678,122.522,39.678z M122.522,84.643c-10.346,0-18.734-8.389-18.734-18.734
					c0-10.348,8.389-18.736,18.734-18.736c10.344,0.014,18.722,8.395,18.736,18.736C141.259,76.254,132.872,84.643,122.522,84.643z"
					/>
			</g>
		</g>
		<g>
			<g>
				
					<rect x="118.775" y="62.16" fill="none" stroke="#FFFFFF" stroke-width="4" stroke-miterlimit="10" width="7.495" height="7.494"/>
			</g>
		</g>
		<g>
			<g>
				<path fill="none" stroke="#FFFFFF" stroke-width="4" stroke-miterlimit="10" d="M40.092,91.523v19.348
					c0.017,14.479,11.749,26.211,26.228,26.229h33.722c14.479-0.018,26.214-11.75,26.229-26.229v-3.287"/>
			</g>
		</g>
		<g>
			<g>
				<path fill="none" stroke="#FFFFFF" stroke-width="4" stroke-miterlimit="10" d="M62.572,73.4
					c0,10.348-8.388,18.736-18.735,18.736c-10.346,0-18.734-8.389-18.734-18.736V54.668h37.47V73.4z"/>
			</g>
		</g>
		<g>
			<g>
				<path fill="none" stroke="#FFFFFF" stroke-width="4" stroke-miterlimit="10" d="M25.103,50.92V20.945
					c0-2.07,1.678-3.748,3.748-3.748h29.975c2.069,0,3.747,1.678,3.747,3.748V50.92"/>
			</g>
		</g>
		<g>
			<g>
				
					<rect x="32.597" y="24.691" fill="none" stroke="#FFFFFF" stroke-width="4" stroke-miterlimit="10" width="7.493" height="14.986"/>
			</g>
		</g>
		<g>
			<g>
				
					<rect x="47.585" y="24.691" fill="none" stroke="#FFFFFF" stroke-width="4" stroke-miterlimit="10" width="7.491" height="14.986"/>
			</g>
		</g>
		<g>
			<g>
				
					<rect x="13.862" y="137.1" fill="none" stroke="#FFFFFF" stroke-width="4" stroke-miterlimit="10" width="7.492" height="7.494"/>
			</g>
		</g>
		<g>
			<g>
				
					<rect x="13.862" y="122.111" fill="none" stroke="#FFFFFF" stroke-width="4" stroke-miterlimit="10" width="7.492" height="7.494"/>
			</g>
		</g>
		<g>
			<g>
				
					<rect x="28.851" y="137.1" fill="none" stroke="#FFFFFF" stroke-width="4" stroke-miterlimit="10" width="7.494" height="7.494"/>
			</g>
		</g>
	</g>
</g>
</svg>
