<?xml version="1.0" encoding="utf-8"?>
<!-- Generator: Adobe Illustrator 16.0.0, SVG Export Plug-In . SVG Version: 6.00 Build 0)  -->
<!DOCTYPE svg PUBLIC "-//W3C//DTD SVG 1.1//EN" "http://www.w3.org/Graphics/SVG/1.1/DTD/svg11.dtd">
<svg version="1.1" xmlns="http://www.w3.org/2000/svg" xmlns:xlink="http://www.w3.org/1999/xlink" x="0px" y="0px" width="33px"
	 height="33px" viewBox="0 0 33 33" enable-background="new 0 0 33 33" xml:space="preserve">
<g id="圖層_1">
</g>
<g id="Capa_1">
</g>
<g id="分離模式">
	<g>
		<g>
			<g>
				<path fill="#FFFFFF" d="M18.517,20.049c-0.093-0.1-0.206-0.174-0.324-0.236c-0.26-0.137-0.539-0.217-0.822-0.291v2.174
					c0.457-0.053,0.979-0.219,1.22-0.643l0,0c0.111-0.203,0.134-0.451,0.089-0.678C18.653,20.254,18.601,20.141,18.517,20.049z"/>
			</g>
			<g>
				<path fill="#FFFFFF" d="M18.587,21.057l0.003-0.004l0,0L18.587,21.057z"/>
			</g>
			<g>
				<path fill="#FFFFFF" d="M15.24,16.577c-0.08,0.115-0.13,0.244-0.144,0.381c-0.011,0.139-0.004,0.293,0.046,0.424
					c0.052,0.123,0.153,0.215,0.263,0.287c0.124,0.084,0.254,0.148,0.391,0.201c0.115,0.047,0.242,0.09,0.384,0.133V16.04
					C15.83,16.112,15.446,16.272,15.24,16.577z"/>
			</g>
			<g>
				<path fill="#FFFFFF" d="M18.597,21.038c-0.003,0.004-0.004,0.01-0.007,0.016l0,0C18.593,21.047,18.594,21.042,18.597,21.038z"/>
			</g>
			<g>
				<path fill="#FFFFFF" d="M18.61,21.016L18.61,21.016L18.61,21.016z"/>
			</g>
			<g>
				<path fill="#FFFFFF" d="M18.136,9.204c1.85-1.551,3.08-5.047,2.322-5.199c-1.008-0.203-3.2,0.689-4.26,0.846
					c-1.5,0.182-3.139-1.629-4.056-0.621c-0.746,0.82,0.534,3.805,2.538,5.105C8.698,12.274,0.289,27.04,14.962,28.11
					C35.265,29.592,25.1,12.069,18.136,9.204z M19.88,20.848c-0.062,0.576-0.367,1.096-0.822,1.449
					c-0.481,0.373-1.086,0.547-1.688,0.596v0.635c0,0.17-0.071,0.334-0.201,0.449c-0.174,0.154-0.432,0.191-0.643,0.094
					c-0.21-0.098-0.347-0.311-0.347-0.543v-0.695c-0.105-0.02-0.205-0.041-0.307-0.07c-0.562-0.154-1.081-0.455-1.462-0.898
					c-0.188-0.223-0.343-0.473-0.451-0.744c-0.027-0.07-0.053-0.145-0.072-0.217c-0.021-0.064-0.04-0.133-0.049-0.201
					c-0.012-0.115,0.014-0.234,0.065-0.336c0.108-0.213,0.347-0.34,0.584-0.318c0.231,0.021,0.437,0.184,0.515,0.406
					c0.018,0.068,0.034,0.141,0.062,0.209c0.021,0.068,0.056,0.133,0.091,0.193c0.071,0.125,0.16,0.238,0.261,0.338
					c0.211,0.203,0.48,0.336,0.763,0.412v-2.361c-0.552-0.143-1.114-0.326-1.567-0.676c-0.221-0.174-0.41-0.385-0.529-0.637
					c-0.129-0.266-0.183-0.562-0.183-0.855c-0.007-0.299,0.054-0.592,0.178-0.865c0.116-0.254,0.283-0.482,0.491-0.672
					c0.44-0.404,1.022-0.631,1.61-0.713v-0.053v-0.609c0-0.17,0.073-0.334,0.199-0.445c0.173-0.156,0.434-0.195,0.646-0.096
					c0.211,0.096,0.345,0.311,0.345,0.541v0.609v0.049c0.08,0.01,0.159,0.021,0.236,0.035c0.574,0.105,1.137,0.342,1.557,0.756
					c0.199,0.197,0.363,0.432,0.48,0.688c0.032,0.07,0.058,0.143,0.083,0.219c0.021,0.068,0.046,0.139,0.056,0.213
					c0.018,0.115,0,0.234-0.049,0.338c-0.103,0.219-0.328,0.357-0.566,0.346c-0.235-0.01-0.448-0.164-0.531-0.383
					c-0.025-0.066-0.039-0.135-0.063-0.199c-0.028-0.066-0.06-0.129-0.101-0.188c-0.074-0.115-0.168-0.217-0.279-0.297
					c-0.238-0.176-0.529-0.268-0.822-0.318v2.26c0.346,0.082,0.691,0.172,1.022,0.303c0.497,0.197,0.97,0.498,1.243,0.975
					c-0.042-0.074-0.081-0.146,0,0.004c0.084,0.145,0.045,0.074,0.005,0.002C19.855,19.958,19.927,20.415,19.88,20.848z"/>
			</g>
			<g>
				<path fill="#FFFFFF" d="M18.579,21.069c-0.003,0.006-0.007,0.012-0.01,0.016C18.572,21.081,18.576,21.077,18.579,21.069z"/>
			</g>
		</g>
	</g>
</g>
</svg>
