<?xml version="1.0" encoding="utf-8"?>
<!-- Generator: Adobe Illustrator 16.0.0, SVG Export Plug-In . SVG Version: 6.00 Build 0)  -->
<!DOCTYPE svg PUBLIC "-//W3C//DTD SVG 1.1//EN" "http://www.w3.org/Graphics/SVG/1.1/DTD/svg11.dtd">
<svg version="1.1" xmlns="http://www.w3.org/2000/svg" xmlns:xlink="http://www.w3.org/1999/xlink" x="0px" y="0px" width="168px"
	 height="177.5px" viewBox="0 0 168 177.5" enable-background="new 0 0 168 177.5" xml:space="preserve">
<g id="圖層_1">
</g>
<g id="Capa_1">
	<g>
		
			<line fill="#5EA934" stroke="#FFFFFF" stroke-width="4" stroke-miterlimit="10" x1="78.218" y1="77.676" x2="94.181" y2="93.641"/>
		
			<line fill="#5EA934" stroke="#FFFFFF" stroke-width="4" stroke-miterlimit="10" x1="95.775" y1="116.77" x2="106.562" y2="105.98"/>
		
			<line fill="#5EA934" stroke="#FFFFFF" stroke-width="4" stroke-miterlimit="10" x1="104.106" y1="129.393" x2="120.733" y2="113.578"/>
		<g>
			<g id="XMLID_21_">
				<g>
				</g>
				<g>
					<path fill="none" stroke="#FFFFFF" stroke-width="4" stroke-miterlimit="10" d="M152.46,145.562l-32.445-32.445l2.041-5.456
						c0.417-1.041,0.167-2.166-0.625-2.957l-4.832-4.832c-1.083-1.083-2.874-1.083-3.957,0l-6.081,6.081L93.859,93.25l28.197-28.197
						c2.708-2.707,6.123-4.79,9.871-5.998c3.249-1.042,6.206-2.832,8.622-5.248c4.124-4.165,6.373-9.663,6.289-15.535
						c-0.083-5.873-2.499-11.329-6.789-15.327c-0.708-0.667-1.708-0.917-2.624-0.667c-0.917,0.25-1.666,0.958-1.958,1.874
						l-3.541,11.287c-0.417,1.416-1.375,2.541-2.666,3.249c-1.291,0.666-2.791,0.791-4.207,0.375
						c-2.291-0.708-3.832-2.832-3.832-5.248c0-0.542,0.083-1.083,0.25-1.625l3.499-11.204c0.292-0.917,0.083-1.916-0.583-2.624
						c-0.625-0.75-1.583-1.083-2.541-0.958c-3.957,0.667-7.664,2.416-10.663,5.04c-5.29,4.665-7.997,11.579-7.205,18.576
						c0.791,7.123-1.75,14.245-6.998,19.492l-17.909,17.91L40.38,39.771l-0.708-7.622c-0.083-0.833-0.542-1.625-1.292-2.083
						L18.722,17.739c-1.083-0.708-2.541-0.542-3.457,0.375l-7.33,7.331c-0.917,0.916-1.083,2.374-0.375,3.457L19.889,48.56
						c0.458,0.75,1.25,1.208,2.083,1.291l7.622,0.708l38.651,38.693l-28.155,28.155c-2.708,2.707-6.123,4.79-9.913,5.998
						c-3.249,1.083-6.164,2.832-8.58,5.29c-4.165,4.124-6.373,9.663-6.289,15.494c0.083,5.873,2.499,11.329,6.789,15.369
						c0.708,0.625,1.666,0.875,2.624,0.667c0.917-0.25,1.666-0.958,1.916-1.875l3.54-11.329c0.458-1.375,1.417-2.541,2.708-3.207
						c1.25-0.667,2.707-0.833,4.082-0.417c0.042,0,0.042,0,0.083,0.042c2.916,0.875,4.498,3.957,3.624,6.872l-3.499,11.163
						c-0.292,0.916-0.083,1.916,0.542,2.666c0.542,0.625,1.333,0.958,2.124,0.958c0.125,0,0.292,0,0.458-0.042
						c3.957-0.625,7.664-2.374,10.663-5.04c5.29-4.623,7.955-11.579,7.205-18.534c-0.833-7.164,1.75-14.286,6.998-19.534
						l17.909-17.91l12.704,12.703l-6.081,6.081c-1.083,1.083-1.083,2.874,0,3.957l4.832,4.832c0.791,0.792,1.916,1,2.957,0.625
						l5.456-2.041l32.445,32.445c1.708,1.666,3.915,2.541,6.164,2.541c2.208,0,4.457-0.875,6.123-2.541l4.79-4.79
						C155.834,154.476,155.834,148.936,152.46,145.562z"/>
				</g>
			</g>
		</g>
		<line fill="none" stroke="#FFFFFF" stroke-width="4" stroke-miterlimit="10" x1="67.714" y1="88.719" x2="84.55" y2="105.555"/>
	</g>
</g>
</svg>
