<?xml version="1.0" encoding="utf-8"?>
<!-- Generator: Adobe Illustrator 16.0.0, SVG Export Plug-In . SVG Version: 6.00 Build 0)  -->
<!DOCTYPE svg PUBLIC "-//W3C//DTD SVG 1.1//EN" "http://www.w3.org/Graphics/SVG/1.1/DTD/svg11.dtd">
<svg version="1.1" xmlns="http://www.w3.org/2000/svg" xmlns:xlink="http://www.w3.org/1999/xlink" x="0px" y="0px" width="50px"
	 height="50px" viewBox="0 0 50 50" enable-background="new 0 0 50 50" xml:space="preserve">
<g id="圖層_1">
</g>
<g id="Capa_1">
	<g>
		<path fill="#C30D23" d="M50,40.226C50,45.625,45.625,50,40.228,50H9.773C4.375,50,0,45.625,0,40.226V9.774
			C0,4.375,4.375,0,9.773,0h30.454C45.625,0,50,4.375,50,9.774V40.226z"/>
		<g>
			<g>
				<path fill="#FFFFFF" d="M19.795,23.432v5.304h7.502c-1.094,3.088-4.044,5.305-7.502,5.305c-4.386,0-7.955-3.57-7.955-7.957
					c0-4.386,3.569-7.956,7.955-7.956c1.902,0,3.731,0.681,5.153,1.92l3.486-4c-2.388-2.079-5.452-3.225-8.64-3.225
					c-7.312,0-13.261,5.95-13.261,13.261c0,7.312,5.948,13.261,13.261,13.261c7.313,0,13.263-5.949,13.263-13.261v-2.651H19.795z"/>
			</g>
		</g>
		<line fill="none" stroke="#FFFFFF" stroke-width="3" stroke-miterlimit="10" x1="35.206" y1="25.69" x2="46.856" y2="25.69"/>
		<line fill="none" stroke="#FFFFFF" stroke-width="3" stroke-miterlimit="10" x1="40.807" y1="20.015" x2="40.807" y2="31.664"/>
	</g>
</g>
</svg>
