<?xml version="1.0" encoding="utf-8"?>
<!-- Generator: Adobe Illustrator 22.1.0, SVG Export Plug-In . SVG Version: 6.00 Build 0)  -->
<svg version="1.1" id="圖層_1" xmlns="http://www.w3.org/2000/svg" xmlns:xlink="http://www.w3.org/1999/xlink" x="0px" y="0px"
	 viewBox="0 0 50 50" style="enable-background:new 0 0 50 50;" xml:space="preserve">
<style type="text/css">
	.st0{fill:#4BA0EB;}
	.st1{fill:#FFFFFF;}
</style>
<g id="圖層_1_1_">
</g>
<g>
	<path class="st0" d="M50,40.2c0,5.4-4.4,9.8-9.8,9.8H9.8C4.4,50,0,45.6,0,40.2V9.8C0,4.4,4.4,0,9.8,0h30.5C45.6,0,50,4.4,50,9.8
		V40.2z"/>
	<path class="st1" d="M40.7,21c0,0.3,0,0.6,0,0.9c0,8.8-6.8,18.9-19.2,18.9c-3.8,0-7.4-1.1-10.4-3c0.5,0,1,0.1,1.6,0.1
		c3.2,0,6.1-1,8.4-2.8c-3,0-5.4-2-6.3-4.6c0.4,0.1,0.8,0.1,1.3,0.1c0.6,0,1.3-0.1,1.8-0.3c-3-0.6-5.3-3.3-5.3-6.5v-0.1
		c0.8,0.5,1.9,0.8,3,0.8c-1.8-1.2-3-3.2-3-5.5c0-1.2,0.3-2.3,0.9-3.4c3.4,4,8.3,6.7,13.9,7c-0.1-0.5-0.2-1-0.2-1.5
		c0-3.7,3-6.7,6.7-6.7c1.9,0,3.7,0.8,4.9,2.1c1.6-0.3,3-0.8,4.3-1.6c-0.5,1.6-1.6,2.9-3,3.7c1.4-0.2,2.7-0.5,3.9-1
		C43.1,18.9,42,20,40.7,21z"/>
</g>
</svg>
