<?xml version="1.0" encoding="utf-8"?>
<!-- Generator: Adobe Illustrator 16.0.0, SVG Export Plug-In . SVG Version: 6.00 Build 0)  -->
<!DOCTYPE svg PUBLIC "-//W3C//DTD SVG 1.1//EN" "http://www.w3.org/Graphics/SVG/1.1/DTD/svg11.dtd">
<svg version="1.1" xmlns="http://www.w3.org/2000/svg" xmlns:xlink="http://www.w3.org/1999/xlink" x="0px" y="0px" width="50px"
	 height="50px" viewBox="0 0 50 50" enable-background="new 0 0 50 50" xml:space="preserve">
<g id="圖層_1">
</g>
<g id="Capa_1">
	<g>
		<defs>
			<path id="SVGID_1_" d="M50.002,40.232c0,5.398-4.375,9.773-9.772,9.773H9.774c-5.396,0-9.772-4.375-9.772-9.773V9.78
				c0-5.398,4.376-9.774,9.772-9.774h30.455c5.397,0,9.772,4.375,9.772,9.774V40.232z"/>
		</defs>
		<clipPath id="SVGID_2_">
			<use xlink:href="#SVGID_1_"  overflow="visible"/>
		</clipPath>
		<g clip-path="url(#SVGID_2_)">
			<g id="XMLID_33_">
				<g>
					<path fill="#EA5514" d="M21.709,39.252c-6.821,0.667-12.702-2.411-13.153-6.89c-0.441-4.479,4.734-8.654,11.555-9.331
						s12.702,2.411,13.143,6.89C33.695,34.391,28.53,38.576,21.709,39.252z M17.298,37.321c3.401,1.098,7.4-0.578,8.792-3.725
						c1.372-3.077-0.343-6.253-3.695-7.115c-3.244-0.843-6.919,0.765-8.321,3.627C12.633,33.028,14.025,36.263,17.298,37.321z"/>
					<path fill="#FFFFFF" d="M36.616,17.484c-0.638-0.715-1.598-0.98-2.471-0.793v-0.01c-0.734,0.167-1.45-0.304-1.606-1.039
						c-0.157-0.735,0.304-1.451,1.038-1.607c1.794-0.382,3.744,0.167,5.058,1.627c1.323,1.46,1.676,3.45,1.107,5.204
						c-0.226,0.706-0.99,1.098-1.705,0.873c-0.716-0.235-1.107-1-0.872-1.715h-0.011C37.439,19.17,37.263,18.2,36.616,17.484z"/>
					<path fill="#FFFFFF" d="M8.556,32.362c0.451,4.479,6.332,7.557,13.153,6.89c6.821-0.676,11.986-4.861,11.545-9.33
						c-0.44-4.479-6.321-7.566-13.143-6.89S8.115,27.883,8.556,32.362z M40.35,30.01c-0.01,5.165-7.458,11.683-18.66,11.683
						c-8.546,0-17.289-4.146-17.289-10.957c0-3.567,2.264-7.684,6.145-11.565c5.194-5.194,11.241-7.557,13.515-5.283
						c1.009,1.01,1.098,2.744,0.46,4.822c-0.343,1.039,0.98,0.461,0.98,0.461c4.194-1.754,7.851-1.853,9.183,0.059
						c0.716,1.02,0.647,2.44-0.01,4.097c-0.304,0.765,0.099,0.882,0.677,1.059C37.714,25.12,40.35,26.884,40.35,30.01z"/>
					<path fill="#EA5514" d="M19.916,33.931c-0.667,1.048-2.078,1.509-3.136,1.019c-1.049-0.47-1.362-1.695-0.696-2.715
						c0.647-1.028,2.009-1.479,3.068-1.038C20.219,31.656,20.562,32.862,19.916,33.931z"/>
					<path fill="#EA5514" d="M21.758,30.118c0.412,0.146,0.559,0.607,0.333,1.019c-0.245,0.412-0.774,0.608-1.186,0.432
						c-0.402-0.157-0.529-0.617-0.304-1.02C20.836,30.147,21.346,29.951,21.758,30.118z"/>
					<path fill="#FFFFFF" d="M20.905,31.568c0.412,0.177,0.941-0.02,1.186-0.432c0.226-0.411,0.079-0.872-0.333-1.019
						c-0.412-0.167-0.921,0.029-1.156,0.431C20.376,30.951,20.503,31.411,20.905,31.568z M26.09,33.597
						c-1.392,3.146-5.391,4.822-8.792,3.725c-3.273-1.059-4.665-4.293-3.224-7.213c1.401-2.862,5.077-4.47,8.321-3.627
						C25.747,27.344,27.462,30.52,26.09,33.597z M19.916,33.931c0.646-1.068,0.304-2.274-0.765-2.734
						c-1.059-0.441-2.421,0.01-3.068,1.038c-0.666,1.02-0.353,2.245,0.696,2.715C17.837,35.439,19.249,34.979,19.916,33.931z"/>
					<path fill="#FFFFFF" d="M45.074,22.581v0.01c-0.274,0.823-1.157,1.274-1.99,1.009s-1.283-1.156-1.019-1.989
						c0.823-2.548,0.304-5.449-1.617-7.576c-1.921-2.136-4.764-2.95-7.38-2.391c-0.854,0.176-1.687-0.363-1.872-1.215
						c-0.187-0.853,0.362-1.696,1.215-1.872c0.755-0.157,1.52-0.235,2.273-0.235c2.989,0,5.949,1.206,8.105,3.597
						C45.495,14.917,46.23,18.994,45.074,22.581z"/>
					<path fill="#EA5514" d="M33.068,11.644c2.616-0.559,5.459,0.255,7.38,2.391c1.921,2.127,2.44,5.028,1.617,7.576
						c-0.265,0.833,0.186,1.725,1.019,1.989s1.716-0.186,1.99-1.009v-0.01c1.156-3.587,0.421-7.664-2.284-10.663
						c-2.156-2.392-5.116-3.597-8.105-3.597c-0.754,0-1.519,0.079-2.273,0.235c-0.853,0.176-1.401,1.019-1.215,1.872
						C31.382,11.281,32.215,11.82,33.068,11.644z M34.146,16.691c0.873-0.187,1.833,0.078,2.471,0.793
						c0.646,0.716,0.823,1.686,0.538,2.539h0.011c-0.235,0.715,0.156,1.48,0.872,1.715c0.715,0.225,1.479-0.167,1.705-0.873
						c0.568-1.754,0.216-3.744-1.107-5.204c-1.313-1.46-3.264-2.009-5.058-1.627c-0.734,0.157-1.195,0.873-1.038,1.607
						c0.156,0.735,0.872,1.206,1.606,1.039V16.691z M25.502,19.17c0,0-1.323,0.578-0.98-0.461c0.637-2.078,0.549-3.812-0.46-4.822
						c-2.274-2.274-8.321,0.088-13.515,5.283c-3.881,3.881-6.145,7.998-6.145,11.565c0,6.812,8.742,10.957,17.289,10.957
						c11.202,0,18.65-6.518,18.66-11.683c0-3.126-2.636-4.89-4.998-5.625c-0.578-0.176-0.98-0.294-0.677-1.059
						c0.657-1.656,0.726-3.077,0.01-4.097C33.353,17.318,29.696,17.416,25.502,19.17z M50.004,2.666v44.682
						c0,1.46-1.196,2.656-2.666,2.656H2.666C1.196,50.004,0,48.808,0,47.348V2.666C0,1.196,1.196,0,2.666,0h44.672
						C48.808,0,50.004,1.196,50.004,2.666z"/>
				</g>
				<g>
				</g>
			</g>
		</g>
	</g>
</g>
</svg>
