<?xml version="1.0" encoding="utf-8"?>
<!-- Generator: Adobe Illustrator 16.0.0, SVG Export Plug-In . SVG Version: 6.00 Build 0)  -->
<!DOCTYPE svg PUBLIC "-//W3C//DTD SVG 1.1//EN" "http://www.w3.org/Graphics/SVG/1.1/DTD/svg11.dtd">
<svg version="1.1" xmlns="http://www.w3.org/2000/svg" xmlns:xlink="http://www.w3.org/1999/xlink" x="0px" y="0px" width="50px"
	 height="50px" viewBox="0 0 50 50" enable-background="new 0 0 50 50" xml:space="preserve">
<g id="圖層_1">
</g>
<g id="Capa_1">
	<g>
		<path fill="#036EB8" d="M50,40.226C50,45.624,45.624,50,40.228,50H9.774C4.376,50,0,45.624,0,40.226V9.774
			C0,4.376,4.376,0,9.774,0h30.453C45.624,0,50,4.376,50,9.774V40.226z"/>
		<path fill="#FFFFFF" d="M27.42,45.351V30.39h-5.44v-6.8h5.44V18.15c0-4.508,3.654-8.161,8.16-8.161h5.442v6.799h-2.721
			c-1.502,0-2.722-0.142-2.722,1.361v5.439h6.803l-2.722,6.8H35.58v14.961"/>
	</g>
</g>
</svg>
