<?xml version="1.0" encoding="utf-8"?>
<!-- Generator: Adobe Illustrator 16.0.0, SVG Export Plug-In . SVG Version: 6.00 Build 0)  -->
<!DOCTYPE svg PUBLIC "-//W3C//DTD SVG 1.1//EN" "http://www.w3.org/Graphics/SVG/1.1/DTD/svg11.dtd">
<svg version="1.1" xmlns="http://www.w3.org/2000/svg" xmlns:xlink="http://www.w3.org/1999/xlink" x="0px" y="0px" width="50px"
	 height="50px" viewBox="0 0 50 50" enable-background="new 0 0 50 50" xml:space="preserve">
<g id="圖層_1">
</g>
<g id="Capa_1">
</g>
<g id="分離模式">
	<g>
		<defs>
			<path id="SVGID_1_" d="M50,40.003c0,5.399-4.375,9.775-9.771,9.775H9.775C4.376,49.778,0,45.402,0,40.003V9.552
				c0-5.398,4.376-9.774,9.775-9.774h30.453C45.625-0.222,50,4.154,50,9.552V40.003z"/>
		</defs>
		<clipPath id="SVGID_2_">
			<use xlink:href="#SVGID_1_"  overflow="visible"/>
		</clipPath>
		<g clip-path="url(#SVGID_2_)">
			<rect x="-0.686" y="-0.39" fill="#3AAE36" width="50.389" height="50.39"/>
			<g>
				<path fill="#FFFFFF" d="M42.797,23.893c0.086-0.445,0.128-0.822,0.147-1.115c0.03-0.486-0.005-1.208-0.018-1.434
					c-0.447-7.785-8.525-13.988-18.423-13.988c-10.185,0-18.441,6.568-18.441,14.668c0,7.446,6.975,13.597,16.012,14.542
					c0.552,0.06,0.949,0.558,0.89,1.11l-0.386,3.463c-0.086,0.785,0.725,1.357,1.438,1.015c7.636-3.685,12.201-7.477,14.929-10.762
					c0.495-0.597,2.113-2.863,2.442-3.459C42.089,26.671,42.571,25.313,42.797,23.893z"/>
				<path fill="#3DAF36" d="M14.363,24.995v-6.179c0-0.521-0.423-0.941-0.945-0.941l0,0c-0.521,0-0.941,0.421-0.941,0.941v7.123
					c0,0.521,0.421,0.943,0.941,0.943h3.775c0.521,0,0.943-0.423,0.943-0.943l0,0c0-0.521-0.422-0.944-0.943-0.944H14.363z"/>
				<path fill="#3DAF36" d="M20.182,26.883h-0.41c-0.409,0-0.739-0.329-0.739-0.737v-7.534c0-0.407,0.33-0.736,0.739-0.736h0.41
					c0.406,0,0.736,0.329,0.736,0.736v7.534C20.918,26.554,20.588,26.883,20.182,26.883z"/>
				<path fill="#3DAF36" d="M27.807,18.816v4.352c0,0-3.769-4.914-3.826-4.978c-0.18-0.202-0.445-0.327-0.74-0.315
					c-0.513,0.019-0.905,0.467-0.905,0.981v7.083c0,0.521,0.423,0.943,0.943,0.943l0,0c0.52,0,0.941-0.423,0.941-0.943v-4.324
					c0,0,3.825,4.956,3.882,5.01c0.167,0.158,0.391,0.256,0.638,0.258c0.526,0.004,0.951-0.459,0.951-0.981v-7.085
					c0-0.521-0.421-0.941-0.941-0.941l0,0C28.227,17.875,27.807,18.296,27.807,18.816z"/>
				<path fill="#3DAF36" d="M36.769,18.816L36.769,18.816c0-0.521-0.424-0.941-0.944-0.941h-3.773c-0.521,0-0.943,0.421-0.943,0.941
					v7.123c0,0.521,0.422,0.943,0.943,0.943h3.773c0.521,0,0.944-0.423,0.944-0.943l0,0c0-0.521-0.424-0.944-0.944-0.944h-2.831
					v-1.673h2.831c0.521,0,0.944-0.423,0.944-0.943l0,0c0-0.522-0.424-0.943-0.944-0.943h-2.831v-1.675h2.831
					C36.345,19.761,36.769,19.339,36.769,18.816z"/>
			</g>
		</g>
	</g>
</g>
</svg>
