<?xml version="1.0" encoding="utf-8"?>
<!-- Generator: Adobe Illustrator 22.1.0, SVG Export Plug-In . SVG Version: 6.00 Build 0)  -->
<svg version="1.1" id="圖層_1" xmlns="http://www.w3.org/2000/svg" xmlns:xlink="http://www.w3.org/1999/xlink" x="0px" y="0px"
	 viewBox="0 0 50 50" style="enable-background:new 0 0 50 50;" xml:space="preserve">
<style type="text/css">
	.st0{fill:#E61C15;}
	.st1{fill:#FFFFFF;}
</style>
<g id="圖層_1_1_">
</g>
<g id="Capa_1">
</g>
<g id="分離模式">
	<g>
		<g id="XMLID_42_">
			<g>
				<path class="st0" d="M8.3,16.4c0,0.4,0,0.7,0.1,1.1c0,0.4,0.1,0.7,0.2,1c0.1,0.3,0.2,0.6,0.3,1.1s0.3,0.8,0.3,1
					c0.1,0.2,0.2,0.6,0.4,1.1s0.3,0.8,0.4,1c1.3,3.6,3.7,7,7,10.4c3.4,3.4,6.9,5.7,10.4,7c0.1,0,0.5,0.2,1,0.4s0.9,0.3,1.1,0.4
					c0.2,0.1,0.5,0.2,1,0.3s0.8,0.2,1.1,0.3c0.3,0.1,0.6,0.1,1,0.2c0.4,0.1,0.8,0.1,1.1,0.1c1.2,0,2.7-0.4,4.3-1.1
					c1.6-0.7,2.6-1.6,3.1-2.6c0.5-1.1,0.7-2.3,0.7-3.3c0-0.2,0-0.4-0.1-0.5c-0.1-0.2-0.5-0.5-1.3-1s-1.7-1-2.9-1.6l-1.7-1
					c-0.1-0.1-0.3-0.2-0.6-0.4c-0.3-0.2-0.6-0.4-0.8-0.5s-0.5-0.2-0.7-0.2c-0.4,0-0.9,0.4-1.5,1.1c-0.6,0.7-1.2,1.4-1.9,2.1
					c-0.6,0.7-1.1,1.1-1.4,1.1c-0.2,0-0.3,0-0.5-0.1s-0.4-0.2-0.5-0.2c-0.1-0.1-0.3-0.2-0.5-0.3S27,33.1,26.9,33
					c-2.1-1.2-4-2.6-5.5-4.1c-1.5-1.6-2.9-3.4-4.1-5.6c0-0.1-0.1-0.2-0.3-0.5c-0.1-0.2-0.2-0.4-0.3-0.6c-0.1-0.1-0.1-0.3-0.2-0.5
					s-0.1-0.4-0.1-0.5c0-0.3,0.2-0.6,0.7-1.1s0.9-0.9,1.5-1.3c0.5-0.4,1-0.8,1.5-1.3c0.4-0.5,0.7-0.9,0.7-1.2c0-0.2-0.1-0.4-0.2-0.7
					c-0.1-0.2-0.3-0.5-0.5-0.8s-0.4-0.5-0.4-0.6c-0.1-0.1-0.2-0.4-0.5-0.9s-0.5-1-0.8-1.5s-0.6-1-0.9-1.5s-0.6-1-0.8-1.3
					c-0.2-0.3-0.4-0.5-0.5-0.6c-0.1,0-0.3-0.1-0.5-0.1c-1,0-2.1,0.2-3.3,0.7c-1,0.5-1.9,1.5-2.6,3.1C8.7,13.7,8.3,15.1,8.3,16.4z
					 M50,9.4v31.3c0,2.6-0.9,4.8-2.8,6.6c-1.8,1.8-4,2.7-6.6,2.7H9.4c-2.6,0-4.8-0.9-6.6-2.7C0.9,45.4,0,43.2,0,40.6V9.4
					c0-2.6,0.9-4.8,2.8-6.6S6.8,0,9.4,0h31.2c2.6,0,4.8,0.9,6.6,2.7C49.1,4.6,50,6.8,50,9.4z"/>
				<path class="st1" d="M8.6,18.5c0-0.3-0.1-0.6-0.2-1c-0.1-0.4-0.1-0.8-0.1-1.1c0-1.2,0.4-2.6,1.1-4.2C10.2,10.5,11,9.5,12,9
					c1.1-0.5,2.2-0.7,3.3-0.7c0.2,0,0.4,0,0.5,0.1c0.1,0,0.3,0.2,0.5,0.6c0.3,0.4,0.5,0.8,0.8,1.3s0.6,1,0.9,1.5s0.6,1,0.8,1.5
					c0.3,0.5,0.4,0.8,0.5,0.9c0.1,0.1,0.2,0.3,0.4,0.6c0.2,0.3,0.4,0.6,0.5,0.8s0.2,0.5,0.2,0.7c0,0.3-0.2,0.7-0.7,1.2
					s-0.9,0.9-1.5,1.3c-0.5,0.4-1,0.8-1.5,1.3c-0.4,0.5-0.7,0.8-0.7,1.1c0,0.2,0,0.3,0.1,0.5c0.1,0.2,0.1,0.4,0.2,0.5
					s0.2,0.3,0.3,0.6c0.1,0.2,0.2,0.4,0.3,0.5c1.2,2.1,2.6,4,4.1,5.6c1.5,1.5,3.4,2.9,5.5,4.1c0.1,0,0.2,0.1,0.5,0.3
					c0.2,0.1,0.4,0.2,0.5,0.3s0.3,0.1,0.5,0.2c0.2,0.1,0.4,0.1,0.5,0.1c0.3,0,0.8-0.4,1.4-1.1c0.6-0.7,1.2-1.4,1.9-2.1
					c0.6-0.7,1.1-1.1,1.5-1.1c0.2,0,0.5,0.1,0.7,0.2s0.5,0.3,0.8,0.5s0.5,0.4,0.6,0.4l1.7,1c1.2,0.6,2.1,1.1,2.9,1.6
					c0.8,0.5,1.2,0.8,1.3,1c0,0.1,0.1,0.3,0.1,0.5c0,1-0.2,2.1-0.7,3.3c-0.5,1-1.5,1.9-3.1,2.6c-1.6,0.7-3,1.1-4.3,1.1
					c-0.3,0-0.7,0-1.1-0.1c-0.4-0.1-0.7-0.1-1-0.2c-0.3,0-0.6-0.1-1.1-0.3c-0.4-0.1-0.8-0.2-1-0.3s-0.5-0.2-1.1-0.4
					c-0.5-0.2-0.9-0.3-1-0.4c-3.6-1.3-7-3.7-10.4-7c-3.4-3.4-5.7-6.9-7-10.4c0-0.1-0.2-0.4-0.4-1c-0.2-0.5-0.3-0.9-0.4-1.1
					c-0.1-0.2-0.2-0.5-0.3-1C8.7,19.1,8.6,18.7,8.6,18.5z"/>
			</g>
		</g>
	</g>
</g>
</svg>
